# xmcd
#
# Track frame offsets:
#	150
#	19284
#	40398
#	55103
#	69880
#	86741
#	109189
#	129779
#	149910
#	165429
#	183987
#
# Disc length: 2902 seconds
#
# Revision: 0
# Processed by: cddbd v1.5.2PL0 Copyright (c) Steve Scherf et al.
# Submitted via: EZCDAudioConverter 1.5.5.1
#
DISCID=940b540b
DTITLE=Yarn - Leftovers Vol. 2
DYEAR=1900
DGENRE=
TTITLE0=Bring Me Down
TTITLE1=Blue Skies, Brighter Times, and Roses
TTITLE2=On The Radio
TTITLE3=Turn Your Lights On
TTITLE4=Shake This Thing
TTITLE5=Oncoming Train
TTITLE6=Hard Luck Man
TTITLE7=Luanne
TTITLE8=One and Only
TTITLE9=You See The Sun
TTITLE10=Out On the Road
EXTD=
EXTT0=
EXTT1=
EXTT2=
EXTT3=
EXTT4=
EXTT5=
EXTT6=
EXTT7=
EXTT8=
EXTT9=
EXTT10=
PLAYORDER=
